<svg id="visual" viewBox="0 0 900 600" width="900" height="600" xmlns="http://www.w3.org/2000/svg" xmlns:xlink="http://www.w3.org/1999/xlink" version="1.1"><path d="M0 270L25 267.7C50 265.3 100 260.7 150 266.3C200 272 250 288 300 301.2C350 314.3 400 324.7 450 333C500 341.3 550 347.7 600 349.3C650 351 700 348 750 335C800 322 850 299 875 287.5L900 276L900 0L875 0C850 0 800 0 750 0C700 0 650 0 600 0C550 0 500 0 450 0C400 0 350 0 300 0C250 0 200 0 150 0C100 0 50 0 25 0L0 0Z" fill="#FFD2CE" stroke-linecap="round" stroke-linejoin="miter"></path></svg>