<?xml version="1.0" standalone="no"?>
<!DOCTYPE svg PUBLIC "-//W3C//DTD SVG 20010904//EN"
 "http://www.w3.org/TR/2001/REC-SVG-20010904/DTD/svg10.dtd">
<svg version="1.0" xmlns="http://www.w3.org/2000/svg"
 width="500.000000pt" height="500.000000pt" viewBox="0 0 500.000000 500.000000"
 preserveAspectRatio="xMidYMid meet">
<metadata>
Created by potrace 1.14, written by Peter Selinger 2001-2017
</metadata>
<g transform="translate(0.000000,500.000000) scale(0.100000,-0.100000)"
fill="#000000" stroke="none">
<path d="M2607 4934 c-2 -2 -30 -6 -62 -9 -32 -3 -66 -7 -74 -9 -9 -3 -34 -8
-56 -11 -40 -7 -66 -12 -75 -15 -3 -1 -8 -2 -12 -1 -5 0 -8 -3 -8 -9 0 -5 -7
-7 -15 -4 -8 4 -15 1 -15 -5 0 -7 -6 -11 -12 -10 -21 4 -68 -12 -68 -23 0 -5
-4 -7 -10 -3 -9 6 -50 -13 -61 -28 -3 -5 -10 -9 -15 -9 -14 1 -74 -30 -74 -37
0 -3 -13 -12 -29 -19 -15 -7 -48 -31 -72 -53 -24 -23 -55 -50 -68 -60 -13 -10
-20 -19 -16 -19 4 0 -4 -9 -19 -21 -14 -11 -24 -24 -21 -29 3 -4 -5 -10 -17
-13 -12 -4 -20 -9 -16 -12 3 -3 -9 -21 -26 -39 -43 -46 -56 -64 -56 -74 0 -5
-7 -15 -15 -22 -9 -7 -13 -15 -10 -18 2 -3 -3 -12 -13 -21 -25 -23 -76 -105
-60 -96 7 3 5 0 -4 -8 -10 -8 -15 -17 -11 -20 3 -4 2 -7 -4 -7 -6 0 -21 -22
-34 -50 -13 -27 -28 -50 -32 -50 -5 0 -7 -7 -3 -15 3 -8 2 -15 -2 -15 -4 0
-16 -14 -26 -31 -13 -22 -14 -29 -5 -24 9 6 8 2 -2 -11 -24 -27 -59 -92 -59
-109 0 -7 -7 -21 -16 -29 -8 -9 -12 -20 -9 -26 3 -5 2 -10 -4 -10 -10 0 -27
-38 -23 -52 1 -5 -2 -8 -8 -8 -6 0 -9 -3 -8 -7 1 -5 -3 -18 -10 -29 -6 -12 -8
-24 -5 -28 3 -3 0 -6 -7 -6 -7 0 -11 -3 -7 -6 3 -4 -1 -13 -9 -21 -8 -8 -12
-19 -9 -24 4 -5 1 -9 -5 -9 -7 0 -10 -7 -6 -15 3 -8 2 -15 -3 -15 -7 0 -14
-15 -20 -45 -1 -3 -10 -21 -21 -41 -11 -19 -18 -39 -15 -44 3 -4 1 -10 -4 -12
-5 -1 -11 -10 -13 -18 -2 -8 -7 -18 -11 -21 -4 -3 -9 -16 -10 -27 -1 -12 -5
-22 -9 -22 -4 0 -8 -4 -8 -9 0 -5 -8 -26 -17 -47 -9 -22 -17 -41 -18 -44 -1
-3 -9 -21 -17 -40 -9 -19 -14 -38 -12 -42 3 -5 0 -8 -6 -8 -6 0 -8 -4 -5 -10
3 -5 1 -10 -4 -10 -6 0 -10 -3 -10 -7 1 -5 -4 -24 -12 -43 -7 -19 -12 -38 -11
-42 1 -5 -3 -8 -9 -8 -6 0 -9 -7 -5 -15 3 -8 1 -15 -4 -15 -9 0 -36 -69 -32
-82 1 -5 -2 -8 -8 -8 -5 0 -10 -6 -10 -13 0 -13 -19 -60 -41 -100 -5 -10 -7
-22 -4 -27 4 -6 1 -10 -5 -10 -6 0 -8 -4 -5 -10 3 -5 1 -10 -5 -10 -7 0 -10
-6 -7 -14 3 -8 1 -16 -5 -18 -6 -2 -12 -13 -12 -24 -1 -11 -6 -26 -11 -34 -5
-8 -10 -17 -11 -20 0 -3 -4 -12 -7 -20 -10 -25 -51 -134 -53 -142 -1 -5 -3
-11 -4 -15 -1 -5 -2 -11 -1 -15 0 -5 -3 -8 -8 -8 -5 0 -12 -15 -16 -32 -10
-44 -9 -40 -24 -67 -9 -17 -10 -21 -1 -16 7 4 4 -5 -6 -21 -11 -15 -18 -31
-18 -34 2 -6 1 -8 -25 -89 -11 -35 -18 -67 -16 -71 3 -5 1 -10 -5 -12 -5 -1
-11 -16 -12 -33 -1 -16 -5 -32 -10 -35 -4 -3 -9 -23 -12 -45 -2 -22 -5 -40 -6
-40 -2 0 -10 -38 -14 -70 -3 -16 -5 -30 -6 -30 -3 0 -4 -10 -16 -90 -14 -102
-8 -353 11 -435 4 -14 9 -38 11 -55 3 -16 12 -41 21 -54 9 -13 10 -20 3 -16
-9 5 -8 1 1 -16 7 -13 14 -26 14 -29 1 -13 30 -70 35 -70 3 0 6 -10 7 -22 1
-12 9 -25 17 -30 8 -5 13 -15 10 -23 -4 -8 1 -18 10 -21 9 -3 13 -10 10 -15
-3 -5 0 -9 5 -9 6 0 11 -5 11 -10 0 -11 10 -24 43 -61 9 -10 18 -22 20 -26 1
-5 6 -7 10 -5 5 1 6 -2 3 -7 -4 -5 16 -33 43 -61 27 -28 51 -55 53 -58 2 -4 6
-6 10 -5 4 2 10 -6 13 -17 4 -11 13 -20 21 -20 8 0 12 -5 9 -10 -3 -6 -2 -10
3 -10 5 0 24 -15 43 -33 19 -18 57 -51 84 -73 28 -21 53 -43 57 -49 4 -5 8 -7
8 -2 0 4 8 -1 18 -10 34 -32 62 -53 71 -53 5 0 12 -7 15 -16 4 -9 9 -14 13
-11 3 4 11 0 17 -8 6 -7 17 -15 24 -17 8 -2 27 -16 44 -31 17 -15 33 -26 35
-23 2 2 16 -7 30 -20 14 -13 29 -21 34 -18 5 3 9 1 9 -4 0 -9 31 -27 186 -107
55 -28 105 -50 112 -47 7 2 12 0 12 -6 0 -5 19 -15 43 -22 23 -8 47 -18 54
-23 7 -5 17 -6 23 -2 5 3 10 2 10 -3 0 -6 17 -13 38 -17 20 -4 43 -11 49 -17
7 -6 20 -8 28 -4 8 3 15 1 15 -5 0 -6 9 -8 20 -4 11 3 20 2 20 -4 0 -5 8 -9
18 -9 9 0 31 -3 47 -7 17 -3 44 -8 60 -10 17 -2 30 -4 30 -5 0 -3 15 -5 100
-16 77 -9 354 -10 425 0 136 17 173 24 203 35 15 6 27 7 27 4 0 -4 5 -2 11 4
6 6 17 9 24 7 7 -3 16 -1 19 5 4 6 13 8 20 5 8 -3 17 0 21 5 3 6 11 9 16 6 5
-4 9 -2 9 3 0 5 6 9 13 10 26 2 59 14 124 44 23 11 46 19 50 19 4 0 16 8 27
17 10 9 19 15 20 13 3 -9 86 40 86 51 0 6 3 8 6 5 8 -8 64 24 64 35 0 4 6 8
13 8 7 0 30 15 50 34 20 18 37 32 37 29 0 -2 10 6 23 19 13 13 47 43 75 67 29
24 50 46 48 49 -3 2 8 15 25 29 16 14 26 30 22 35 -3 6 -2 9 3 6 5 -3 15 0 22
8 7 8 9 14 5 14 -4 0 3 7 15 16 12 8 22 25 22 36 0 12 3 18 7 15 8 -8 54 53
48 63 -3 5 2 10 10 14 8 3 15 15 15 26 0 11 4 20 9 20 8 0 40 69 37 81 0 3 7
14 17 24 10 9 16 23 13 31 -3 7 0 14 5 16 6 2 11 10 12 18 2 8 6 21 11 28 4 7
6 16 2 19 -3 3 1 12 9 19 7 8 12 22 11 31 -2 10 0 20 4 23 5 3 10 19 13 35 3
17 10 44 15 60 5 17 8 38 6 48 -1 9 2 17 7 17 5 0 9 10 9 23 0 22 1 38 16 152
13 96 7 635 -6 635 -3 0 -6 29 -8 63 -1 35 -4 79 -7 98 -3 19 -7 57 -10 84 -3
28 -7 68 -10 90 -2 22 -7 65 -10 95 -13 113 -23 209 -31 320 -3 36 -7 218 -9
405 -3 187 -7 363 -9 390 -3 28 -8 75 -11 105 -8 82 -13 115 -15 115 -1 0 -3
11 -4 25 -4 33 -19 117 -26 138 -1 4 -3 12 -5 17 -1 6 -3 12 -4 15 -4 8 -11
43 -13 63 -1 9 -5 17 -8 17 -4 0 -7 6 -8 13 -1 14 -10 51 -12 55 -2 1 -3 5 -4
10 -1 4 -5 13 -9 19 -5 7 -10 22 -12 33 -6 30 -78 170 -88 170 -4 0 -5 4 -2
10 3 5 -7 22 -22 37 -15 14 -21 23 -13 19 12 -6 12 -5 -1 6 -8 7 -18 21 -22
31 -4 11 -12 15 -18 11 -7 -4 -9 -3 -5 4 3 6 -2 15 -11 21 -10 6 -14 11 -9 11
5 0 -10 19 -34 43 -24 23 -47 41 -52 40 -4 -2 -8 2 -8 8 0 11 -40 47 -50 46
-3 -1 -17 11 -33 26 -15 16 -31 26 -36 23 -5 -3 -11 1 -15 9 -3 8 -15 15 -27
15 -12 0 -19 3 -16 7 11 10 -117 68 -142 64 -8 -1 -10 2 -5 10 5 9 2 10 -9 6
-10 -3 -17 -2 -17 4 0 6 -8 9 -17 8 -10 -1 -30 3 -46 9 -29 12 -57 19 -117 28
-19 3 -48 7 -65 10 -71 13 -478 28 -488 18z"/>
</g>
</svg>
